<svg width="393" height="852" viewBox="0 0 393 852" fill="none" xmlns="http://www.w3.org/2000/svg">
<g clip-path="url(#clip0_723_327)">
<path d="M-21.6024 -104.176L652.833 50.009" stroke="white"/>
<path d="M-25.614 -86.6292L648.821 67.5563" stroke="white"/>
<path d="M-29.6255 -69.0818L644.81 85.1037" stroke="white"/>
<path d="M-33.6371 -51.5345L640.798 102.651" stroke="white"/>
<path d="M-37.6487 -33.9872L636.787 120.198" stroke="white"/>
<path d="M-41.6602 -16.4399L632.775 137.745" stroke="white"/>
<path d="M-45.6718 1.1073L628.764 155.293" stroke="white"/>
<path d="M-49.6833 18.6547L624.752 172.84" stroke="white"/>
<path d="M-53.6948 36.2019L620.741 190.387" stroke="white"/>
<path d="M-57.7064 53.7493L616.729 207.935" stroke="white"/>
<path d="M-61.718 71.2965L612.717 225.482" stroke="white"/>
<path d="M-65.7295 88.8438L608.706 243.029" stroke="white"/>
<path d="M-69.7411 106.391L604.694 260.577" stroke="white"/>
<path d="M-73.7527 123.938L600.683 278.124" stroke="white"/>
<path d="M-77.7643 141.486L596.671 295.671" stroke="white"/>
<path d="M-81.7758 159.033L592.66 313.218" stroke="white"/>
<path d="M-85.7874 176.58L588.648 330.766" stroke="white"/>
<path d="M-89.799 194.127L584.636 348.313" stroke="white"/>
<path d="M-93.8104 211.675L580.625 365.86" stroke="white"/>
<path d="M-97.822 229.222L576.613 383.408" stroke="white"/>
<path d="M-101.834 246.77L572.602 400.955" stroke="white"/>
<path d="M-105.845 264.317L568.59 418.502" stroke="white"/>
<path d="M-109.857 281.864L564.579 436.049" stroke="white"/>
<path d="M-113.868 299.411L560.567 453.597" stroke="white"/>
<path d="M-117.88 316.958L556.556 471.144" stroke="white"/>
<path d="M-121.891 334.506L552.544 488.691" stroke="white"/>
<path d="M-125.903 352.053L548.532 506.239" stroke="white"/>
<path d="M-129.914 369.6L544.521 523.786" stroke="white"/>
<path d="M-133.926 387.148L540.509 541.333" stroke="white"/>
<path d="M-137.938 404.695L536.498 558.881" stroke="white"/>
<path d="M-141.949 422.242L532.486 576.428" stroke="white"/>
<path d="M-145.961 439.79L528.475 593.975" stroke="white"/>
<path d="M-149.972 457.337L524.463 611.522" stroke="white"/>
<path d="M-153.984 474.884L520.452 629.07" stroke="white"/>
<path d="M-157.995 492.431L516.44 646.617" stroke="white"/>
<path d="M-162.007 509.979L512.428 664.164" stroke="white"/>
<path d="M-166.018 527.526L508.417 681.712" stroke="white"/>
<path d="M-170.03 545.073L504.405 699.259" stroke="white"/>
<path d="M-174.042 562.621L500.394 716.806" stroke="white"/>
<path d="M-178.053 580.168L496.382 734.353" stroke="white"/>
<path d="M-182.065 597.715L492.371 751.901" stroke="white"/>
<path d="M-186.076 615.262L488.359 769.448" stroke="white"/>
<path d="M-190.088 632.81L484.348 786.995" stroke="white"/>
<path d="M-194.099 650.357L480.336 804.543" stroke="white"/>
<path d="M-198.111 667.904L476.324 822.09" stroke="white"/>
<path d="M-202.123 685.452L472.313 839.637" stroke="white"/>
<path d="M-206.134 702.999L468.301 857.184" stroke="white"/>
<path d="M-210.146 720.546L464.29 874.732" stroke="white"/>
<path d="M-214.157 738.094L460.278 892.279" stroke="white"/>
<path d="M-218.169 755.641L456.267 909.826" stroke="white"/>
<path d="M-222.18 773.188L452.255 927.374" stroke="white"/>
<path d="M-226.192 790.735L448.244 944.921" stroke="white"/>
<path d="M-230.203 808.283L444.232 962.468" stroke="white"/>
<path d="M-173.933 13.0043L515.14 -48.7504" stroke="white"/>
<path d="M-172.327 30.9325L516.747 -30.8222" stroke="white"/>
<path d="M-170.72 48.8606L518.354 -12.8941" stroke="white"/>
<path d="M-169.113 66.7887L519.96 5.03399" stroke="white"/>
<path d="M-167.506 84.7169L521.567 22.9622" stroke="white"/>
<path d="M-165.9 102.645L523.174 40.8903" stroke="white"/>
<path d="M-164.293 120.573L524.781 58.8184" stroke="white"/>
<path d="M-162.686 138.501L526.387 76.7466" stroke="white"/>
<path d="M-161.08 156.429L527.994 94.6747" stroke="white"/>
<path d="M-159.473 174.358L529.601 112.603" stroke="white"/>
<path d="M-157.866 192.286L531.208 130.531" stroke="white"/>
<path d="M-156.26 210.214L532.814 148.459" stroke="white"/>
<path d="M-154.653 228.142L534.421 166.387" stroke="white"/>
<path d="M-153.046 246.07L536.028 184.316" stroke="white"/>
<path d="M-151.439 263.998L537.634 202.244" stroke="white"/>
<path d="M-149.833 281.927L539.241 220.172" stroke="white"/>
<path d="M-148.226 299.855L540.848 238.1" stroke="white"/>
<path d="M-146.619 317.783L542.455 256.028" stroke="white"/>
<path d="M-145.012 335.711L544.061 273.956" stroke="white"/>
<path d="M-143.406 353.639L545.668 291.884" stroke="white"/>
<path d="M-141.799 371.567L547.275 309.812" stroke="white"/>
<path d="M-140.192 389.495L548.882 327.741" stroke="white"/>
<path d="M-138.586 407.424L550.488 345.669" stroke="white"/>
<path d="M-136.979 425.352L552.095 363.597" stroke="white"/>
<path d="M-135.372 443.28L553.702 381.525" stroke="white"/>
<path d="M-133.765 461.208L555.308 399.453" stroke="white"/>
<path d="M-132.159 479.136L556.915 417.381" stroke="white"/>
<path d="M-130.552 497.064L558.522 435.31" stroke="white"/>
<path d="M-128.945 514.992L560.128 453.238" stroke="white"/>
<path d="M-127.339 532.921L561.735 471.166" stroke="white"/>
<path d="M-125.732 550.849L563.342 489.094" stroke="white"/>
<path d="M-124.125 568.777L564.949 507.022" stroke="white"/>
<path d="M-122.518 586.705L566.555 524.95" stroke="white"/>
<path d="M-120.912 604.633L568.162 542.878" stroke="white"/>
<path d="M-119.305 622.561L569.769 560.807" stroke="white"/>
<path d="M-117.698 640.49L571.376 578.735" stroke="white"/>
<path d="M-116.092 658.417L572.982 596.663" stroke="white"/>
<path d="M-114.485 676.346L574.589 614.591" stroke="white"/>
<path d="M-112.878 694.274L576.196 632.519" stroke="white"/>
<path d="M-111.271 712.202L577.802 650.447" stroke="white"/>
<path d="M-109.665 730.13L579.409 668.375" stroke="white"/>
<path d="M-108.058 748.058L581.016 686.304" stroke="white"/>
<path d="M-106.451 765.987L582.623 704.232" stroke="white"/>
<path d="M-104.844 783.915L584.229 722.16" stroke="white"/>
<path d="M-103.238 801.843L585.836 740.088" stroke="white"/>
<path d="M-101.631 819.771L587.443 758.016" stroke="white"/>
<path d="M-100.024 837.699L589.049 775.944" stroke="white"/>
<path d="M-98.4176 855.627L590.656 793.872" stroke="white"/>
<path d="M-96.8109 873.555L592.263 811.801" stroke="white"/>
<path d="M-95.2042 891.483L593.87 829.729" stroke="white"/>
</g>
<defs>
<clipPath id="clip0_723_327">
<rect width="393" height="852" fill="white"/>
</clipPath>
</defs>
</svg>
